<?xml version="1.0" encoding="UTF-8"?>
<svg id="uuid-cbf61ce6-7fe9-477b-b077-db75589c0140" data-name="Layer 1" xmlns="http://www.w3.org/2000/svg" xmlns:xlink="http://www.w3.org/1999/xlink" viewBox="0 0 1000 1000">
  <defs>
    <style>
      .uuid-d21c04d4-6816-443a-8dcb-eba0b95e8bbd {
        fill: #fff;
      }

      .uuid-d21c04d4-6816-443a-8dcb-eba0b95e8bbd, .uuid-ed1cc7d4-8518-432b-8993-14d2f86e1a7e {
        stroke-width: 0px;
      }

      .uuid-ed1cc7d4-8518-432b-8993-14d2f86e1a7e {
        fill: url(#uuid-34aa1b57-cb90-4128-b712-e17b6a350b00);
      }
    </style>
    <linearGradient id="uuid-34aa1b57-cb90-4128-b712-e17b6a350b00" x1="226" y1="500" x2="774" y2="500" gradientUnits="userSpaceOnUse">
      <stop offset="0" stop-color="#db35f4"/>
      <stop offset="1" stop-color="#6a16ff"/>
    </linearGradient>
  </defs>
  <rect class="uuid-d21c04d4-6816-443a-8dcb-eba0b95e8bbd" width="1000" height="1000"/>
  <g>
    <circle class="uuid-ed1cc7d4-8518-432b-8993-14d2f86e1a7e" cx="500" cy="500" r="274"/>
    <path class="uuid-d21c04d4-6816-443a-8dcb-eba0b95e8bbd" d="m638.99,548.58c6.62,8.63,9.94,21.91,9.94,39.84,0,20.47-6.13,38.6-18.37,54.39-12.24,15.79-28.83,27.94-49.78,36.43-20.94,8.5-43.99,12.74-69.14,12.74-33.05,0-62-9.33-86.81-28-24.82-18.66-43.86-43.25-57.09-73.75-13.25-30.51-19.87-62.62-19.87-96.35,0-2,.13-4.88.4-8.63.26-3.74.4-6.62.4-8.63,1.87-27.84,8.43-52.49,19.67-73.97,11.25-21.47,25.29-39.14,42.15-52.98,16.86-13.85,34.89-24.26,54.1-31.21s37.9-10.43,56.1-10.43c14.18,0,28.83,2.31,43.95,6.93,15.12,4.61,29.44,11.87,42.96,21.78,13.51,9.9,24.31,22.47,32.41,37.73,8.1,15.25,12.14,33.12,12.14,53.59,0,22.21-6.02,42.29-18.06,60.21-12.04,17.93-26.9,31.98-44.55,42.15-17.66,10.17-34.06,15.26-49.18,15.26-17.92,0-35.43-6.66-52.48-19.97-17.06-13.31-25.59-30.74-25.59-52.29,0-11.65,3.28-24.82,9.83-39.54-10.96,15.52-16.45,30.84-16.45,45.96s4.74,28.08,14.24,40.05c9.5,11.97,21.11,21.31,34.83,28,13.71,6.69,26.12,10.03,37.23,10.03,10.16,0,18.16-1.14,23.98-3.41,5.81-2.27,14.21-6.22,25.19-11.84,10.96-5.63,19-8.43,24.08-8.43,9.23.93,17.17,5.71,23.79,14.35Z"/>
  </g>
</svg>